<svg xmlns="http://www.w3.org/2000/svg" fill-rule="evenodd" clip-rule="evenodd" image-rendering="optimizeQuality" shape-rendering="geometricPrecision" text-rendering="geometricPrecision" viewBox="0 0 512 499.4"><path fill="#fff" fill-rule="nonzero" d="M256 0a256 256 0 0 0-81 499c13 2 18-6 18-12l-1-48c-64 12-81-16-86-30-3-7-15-30-26-36-9-5-22-17 0-17 20 0 34 18 39 26 23 39 60 28 75 21 2-16 9-28 16-34-57-6-117-29-117-126 0-28 10-51 27-69-3-7-12-33 2-68 0 0 22-7 71 26a237 237 0 0 1 128 0c49-33 70-26 70-26 14 35 5 61 3 68 16 18 26 40 26 69 0 98-60 120-117 126 9 8 17 23 17 47v71c0 6 5 14 18 12A256 256 0 0 0 256 0z"/></svg>