<svg xmlns="http://www.w3.org/2000/svg" xml:space="preserve" width="122.9" height="122.9">
  <path fill="white" fill-rule="evenodd" d="M61 0a61 61 0 1 1 0 123A61 61 0 0 1 61 0zm17 6c21 7 36 25 39 48l-2-1v4c0 1 2 2 2 6l-2 3-4-4v5l-1-9-2 1-2-7-7 7v6l-2 1-2-13-2 1-3-5-5 1-2-3-1 1-4-4h-1l2 6h3v-1h1l2 2c0 6-6 10-11 11l1 2 4-1c0 6-6 13-9 17l1 9c1 2-4 4-5 6l1 3-2 1c-1 3-4 7-8 7h-4l-3-15 1-6-3-9v-5h-3c0-2 0-2-2-2l-6 1h-2c-3 0-7-8-7-9v-8c0-3 3-7 5-8v-4l3-3h2c4 0 3-2 5-2h6v5l7 3 1-3c3 0 3 2 7 2h1c3 0 3-4 3-6h-5l-3-5-2 1 1 2-2 2-2-6-5-4-1 1 5 4c-1 2-1 7-3 3l2-1-6-5-3 1-3 3c0 2-1 4-4 4l-3-1v-7h6l-2-4h-1v-1l10-4v-4l3 2-1-3-4 1v-4c3-2 10-7 12-7h2l8 3-5-1 4 4V9h3V7h2v2l7-3zm39 66-1 2v-2h1zm-2 7v2h-1v-2h1zM12 93c-4-5-7-11-8-18l11 5v3c0 2-2 4-3 5v5z" clip-rule="evenodd"/>
</svg>
